<svg width="862" height="224" viewBox="0 0 862 224" fill="none" xmlns="http://www.w3.org/2000/svg">
<g filter="url(#filter0_f_642_255)">
<path d="M68.3409 210H12.375V64.5455H67.7727C82.7349 64.5455 95.661 67.4574 106.551 73.2812C117.489 79.0578 125.917 87.3911 131.835 98.2812C137.801 109.124 140.784 122.121 140.784 137.273C140.784 152.424 137.825 165.445 131.906 176.335C125.988 187.178 117.607 195.511 106.764 201.335C95.9214 207.112 83.1136 210 68.3409 210ZM51.8636 176.477H66.9205C74.1174 176.477 80.2491 175.317 85.3153 172.997C90.429 170.677 94.3116 166.676 96.9631 160.994C99.6619 155.312 101.011 147.405 101.011 137.273C101.011 127.14 99.6383 119.233 96.892 113.551C94.1932 107.869 90.2159 103.868 84.9602 101.548C79.7519 99.2282 73.3599 98.0682 65.7841 98.0682H51.8636V176.477ZM198.543 64.5455V210H159.055V64.5455H198.543ZM217.258 210V64.5455H280.042C290.837 64.5455 300.283 66.6761 308.38 70.9375C316.477 75.1989 322.774 81.1884 327.272 88.9062C331.77 96.6241 334.019 105.644 334.019 115.966C334.019 126.383 331.699 135.402 327.059 143.026C322.466 150.649 316.003 156.52 307.67 160.639C299.384 164.759 289.701 166.818 278.621 166.818H241.121V136.136H270.667C275.307 136.136 279.261 135.331 282.528 133.722C285.842 132.064 288.375 129.721 290.127 126.69C291.926 123.66 292.826 120.085 292.826 115.966C292.826 111.799 291.926 108.248 290.127 105.312C288.375 102.33 285.842 100.057 282.528 98.4943C279.261 96.8845 275.307 96.0795 270.667 96.0795H256.746V210H217.258ZM348.508 210V64.5455H387.996V121.364H440.269V64.5455H479.758V210H440.269V153.182H387.996V210H348.508ZM537.996 64.5455V210H498.508V64.5455H537.996ZM651.171 112.557C650.556 110.047 649.585 107.846 648.259 105.952C646.933 104.01 645.276 102.377 643.288 101.051C641.346 99.678 639.074 98.66 636.469 97.9972C633.913 97.2869 631.095 96.9318 628.018 96.9318C621.389 96.9318 615.731 98.518 611.043 101.69C606.403 104.863 602.852 109.432 600.39 115.398C597.975 121.364 596.768 128.561 596.768 136.989C596.768 145.511 597.928 152.803 600.248 158.864C602.568 164.924 606.024 169.564 610.617 172.784C615.21 176.004 620.915 177.614 627.734 177.614C633.747 177.614 638.742 176.738 642.719 174.986C646.744 173.234 649.751 170.748 651.739 167.528C653.728 164.309 654.722 160.521 654.722 156.165L661.54 156.875H628.302V128.75H692.79V148.92C692.79 162.178 689.973 173.518 684.339 182.94C678.752 192.315 671.034 199.512 661.185 204.531C651.384 209.503 640.139 211.989 627.45 211.989C613.292 211.989 600.863 208.982 590.163 202.969C579.462 196.955 571.105 188.385 565.092 177.259C559.126 166.132 556.143 152.898 556.143 137.557C556.143 125.53 557.966 114.877 561.612 105.597C565.305 96.3163 570.418 88.4801 576.952 82.0881C583.487 75.6487 591.039 70.7955 599.609 67.5284C608.179 64.214 617.364 62.5568 627.165 62.5568C635.783 62.5568 643.785 63.7879 651.171 66.25C658.605 68.6648 665.163 72.1212 670.844 76.6193C676.574 81.0701 681.19 86.3494 684.694 92.4574C688.198 98.5653 690.328 105.265 691.086 112.557H651.171ZM711.203 210V64.5455H750.692V121.364H802.964V64.5455H842.453V210H802.964V153.182H750.692V210H711.203Z" fill="#777777" fill-opacity="0.07"/>
</g>
<g filter="url(#filter1_b_642_255)">
<mask id="path-2-outside-1_642_255" maskUnits="userSpaceOnUse" x="21" y="45" width="833" height="152" fill="black">
<rect fill="white" x="21" y="45" width="833" height="152"/>
<path d="M78.4268 194H22.4609V48.5455H77.8587C92.8208 48.5455 105.747 51.4574 116.637 57.2812C127.575 63.0578 136.003 71.3911 141.921 82.2812C147.887 93.1241 150.87 106.121 150.87 121.273C150.87 136.424 147.911 149.445 141.992 160.335C136.074 171.178 127.693 179.511 116.85 185.335C106.007 191.112 93.1996 194 78.4268 194ZM61.9496 160.477H77.0064C84.2034 160.477 90.335 159.317 95.4013 156.997C100.515 154.677 104.397 150.676 107.049 144.994C109.748 139.312 111.097 131.405 111.097 121.273C111.097 111.14 109.724 103.233 106.978 97.5511C104.279 91.8693 100.302 87.8684 95.0462 85.5483C89.8378 83.2282 83.4458 82.0682 75.87 82.0682H61.9496V160.477ZM208.629 48.5455V194H169.141V48.5455H208.629ZM227.344 194V48.5455H290.128C300.923 48.5455 310.369 50.6761 318.466 54.9375C326.563 59.1989 332.86 65.1884 337.358 72.9062C341.856 80.6241 344.105 89.6439 344.105 99.9659C344.105 110.383 341.785 119.402 337.145 127.026C332.552 134.649 326.089 140.52 317.756 144.639C309.47 148.759 299.787 150.818 288.707 150.818H251.207V120.136H280.753C285.393 120.136 289.347 119.331 292.614 117.722C295.928 116.064 298.461 113.721 300.213 110.69C302.012 107.66 302.912 104.085 302.912 99.9659C302.912 95.7992 302.012 92.2481 300.213 89.3125C298.461 86.3295 295.928 84.0568 292.614 82.4943C289.347 80.8845 285.393 80.0795 280.753 80.0795H266.832V194H227.344ZM358.594 194V48.5455H398.082V105.364H450.355V48.5455H489.844V194H450.355V137.182H398.082V194H358.594ZM548.082 48.5455V194H508.594V48.5455H548.082ZM661.257 96.5568C660.642 94.0473 659.671 91.8456 658.345 89.9517C657.019 88.0104 655.362 86.3769 653.374 85.0511C651.432 83.678 649.16 82.66 646.555 81.9972C643.999 81.2869 641.181 80.9318 638.104 80.9318C631.475 80.9318 625.817 82.518 621.129 85.6903C616.489 88.8627 612.938 93.4318 610.476 99.3977C608.061 105.364 606.854 112.561 606.854 120.989C606.854 129.511 608.014 136.803 610.334 142.864C612.654 148.924 616.11 153.564 620.703 156.784C625.296 160.004 631.001 161.614 637.82 161.614C643.833 161.614 648.828 160.738 652.805 158.986C656.83 157.234 659.837 154.748 661.825 151.528C663.814 148.309 664.808 144.521 664.808 140.165L671.626 140.875H638.388V112.75H702.876V132.92C702.876 146.178 700.059 157.518 694.425 166.94C688.838 176.315 681.12 183.512 671.271 188.531C661.47 193.503 650.225 195.989 637.536 195.989C623.378 195.989 610.949 192.982 600.249 186.969C589.548 180.955 581.191 172.385 575.178 161.259C569.212 150.132 566.229 136.898 566.229 121.557C566.229 109.53 568.052 98.8769 571.697 89.5966C575.391 80.3163 580.504 72.4801 587.038 66.0881C593.572 59.6487 601.125 54.7955 609.695 51.5284C618.265 48.214 627.45 46.5568 637.251 46.5568C645.869 46.5568 653.871 47.7879 661.257 50.25C668.691 52.6648 675.249 56.1212 680.93 60.6193C686.66 65.0701 691.276 70.3494 694.78 76.4574C698.284 82.5653 700.414 89.2651 701.172 96.5568H661.257ZM721.289 194V48.5455H760.778V105.364H813.05V48.5455H852.539V194H813.05V137.182H760.778V194H721.289Z"/>
</mask>
<path d="M78.4268 194H22.4609V48.5455H77.8587C92.8208 48.5455 105.747 51.4574 116.637 57.2812C127.575 63.0578 136.003 71.3911 141.921 82.2812C147.887 93.1241 150.87 106.121 150.87 121.273C150.87 136.424 147.911 149.445 141.992 160.335C136.074 171.178 127.693 179.511 116.85 185.335C106.007 191.112 93.1996 194 78.4268 194ZM61.9496 160.477H77.0064C84.2034 160.477 90.335 159.317 95.4013 156.997C100.515 154.677 104.397 150.676 107.049 144.994C109.748 139.312 111.097 131.405 111.097 121.273C111.097 111.14 109.724 103.233 106.978 97.5511C104.279 91.8693 100.302 87.8684 95.0462 85.5483C89.8378 83.2282 83.4458 82.0682 75.87 82.0682H61.9496V160.477ZM208.629 48.5455V194H169.141V48.5455H208.629ZM227.344 194V48.5455H290.128C300.923 48.5455 310.369 50.6761 318.466 54.9375C326.563 59.1989 332.86 65.1884 337.358 72.9062C341.856 80.6241 344.105 89.6439 344.105 99.9659C344.105 110.383 341.785 119.402 337.145 127.026C332.552 134.649 326.089 140.52 317.756 144.639C309.47 148.759 299.787 150.818 288.707 150.818H251.207V120.136H280.753C285.393 120.136 289.347 119.331 292.614 117.722C295.928 116.064 298.461 113.721 300.213 110.69C302.012 107.66 302.912 104.085 302.912 99.9659C302.912 95.7992 302.012 92.2481 300.213 89.3125C298.461 86.3295 295.928 84.0568 292.614 82.4943C289.347 80.8845 285.393 80.0795 280.753 80.0795H266.832V194H227.344ZM358.594 194V48.5455H398.082V105.364H450.355V48.5455H489.844V194H450.355V137.182H398.082V194H358.594ZM548.082 48.5455V194H508.594V48.5455H548.082ZM661.257 96.5568C660.642 94.0473 659.671 91.8456 658.345 89.9517C657.019 88.0104 655.362 86.3769 653.374 85.0511C651.432 83.678 649.16 82.66 646.555 81.9972C643.999 81.2869 641.181 80.9318 638.104 80.9318C631.475 80.9318 625.817 82.518 621.129 85.6903C616.489 88.8627 612.938 93.4318 610.476 99.3977C608.061 105.364 606.854 112.561 606.854 120.989C606.854 129.511 608.014 136.803 610.334 142.864C612.654 148.924 616.11 153.564 620.703 156.784C625.296 160.004 631.001 161.614 637.82 161.614C643.833 161.614 648.828 160.738 652.805 158.986C656.83 157.234 659.837 154.748 661.825 151.528C663.814 148.309 664.808 144.521 664.808 140.165L671.626 140.875H638.388V112.75H702.876V132.92C702.876 146.178 700.059 157.518 694.425 166.94C688.838 176.315 681.12 183.512 671.271 188.531C661.47 193.503 650.225 195.989 637.536 195.989C623.378 195.989 610.949 192.982 600.249 186.969C589.548 180.955 581.191 172.385 575.178 161.259C569.212 150.132 566.229 136.898 566.229 121.557C566.229 109.53 568.052 98.8769 571.697 89.5966C575.391 80.3163 580.504 72.4801 587.038 66.0881C593.572 59.6487 601.125 54.7955 609.695 51.5284C618.265 48.214 627.45 46.5568 637.251 46.5568C645.869 46.5568 653.871 47.7879 661.257 50.25C668.691 52.6648 675.249 56.1212 680.93 60.6193C686.66 65.0701 691.276 70.3494 694.78 76.4574C698.284 82.5653 700.414 89.2651 701.172 96.5568H661.257ZM721.289 194V48.5455H760.778V105.364H813.05V48.5455H852.539V194H813.05V137.182H760.778V194H721.289Z" fill="#777777" fill-opacity="0.07"/>
<path d="M22.4609 194H21.4609V195H22.4609V194ZM22.4609 48.5455V47.5455H21.4609V48.5455H22.4609ZM116.637 57.2812L116.165 58.1631L116.17 58.1655L116.637 57.2812ZM141.921 82.2812L141.043 82.7588L141.045 82.7633L141.921 82.2812ZM141.992 160.335L142.87 160.814L142.871 160.813L141.992 160.335ZM116.85 185.335L117.32 186.218L117.323 186.216L116.85 185.335ZM61.9496 160.477H60.9496V161.477H61.9496V160.477ZM95.4013 156.997L94.9881 156.086L94.9849 156.088L95.4013 156.997ZM107.049 144.994L106.146 144.565L106.143 144.571L107.049 144.994ZM106.978 97.5511L106.075 97.9802L106.078 97.9863L106.978 97.5511ZM95.0462 85.5483L94.6393 86.4618L94.6423 86.4631L95.0462 85.5483ZM61.9496 82.0682V81.0682H60.9496V82.0682H61.9496ZM78.4268 193H22.4609V195H78.4268V193ZM23.4609 194V48.5455H21.4609V194H23.4609ZM22.4609 49.5455H77.8587V47.5455H22.4609V49.5455ZM77.8587 49.5455C92.6908 49.5455 105.448 52.4316 116.165 58.1631L117.109 56.3994C106.046 50.4832 92.9508 47.5455 77.8587 47.5455V49.5455ZM116.17 58.1655C126.933 63.8498 135.218 72.0414 141.043 82.7588L142.8 81.8037C136.787 70.7408 128.216 62.2658 117.104 56.397L116.17 58.1655ZM141.045 82.7633C146.913 93.4288 149.87 106.252 149.87 121.273H151.87C151.87 105.99 148.861 92.8193 142.797 81.7992L141.045 82.7633ZM149.87 121.273C149.87 136.294 146.937 149.143 141.114 159.858L142.871 160.813C148.885 149.747 151.87 136.554 151.87 121.273H149.87ZM141.114 159.856C135.289 170.529 127.048 178.723 116.377 184.454L117.323 186.216C128.338 180.3 136.859 171.827 142.87 160.814L141.114 159.856ZM116.38 184.453C105.708 190.138 93.0686 193 78.4268 193V195C93.3306 195 106.306 192.086 117.32 186.218L116.38 184.453ZM61.9496 161.477H77.0064V159.477H61.9496V161.477ZM77.0064 161.477C84.3068 161.477 90.5885 160.301 95.8176 157.906L94.9849 156.088C90.0815 158.333 84.0999 159.477 77.0064 159.477V161.477ZM95.8144 157.908C101.171 155.478 105.215 151.288 107.955 145.417L106.143 144.571C103.58 150.064 99.8589 153.877 94.9881 156.087L95.8144 157.908ZM107.952 145.423C110.742 139.55 112.097 131.473 112.097 121.273H110.097C110.097 131.337 108.754 139.075 106.146 144.565L107.952 145.423ZM112.097 121.273C112.097 111.071 110.718 102.991 107.878 97.116L106.078 97.9863C108.73 103.475 110.097 111.21 110.097 121.273H112.097ZM107.881 97.1221C105.09 91.2458 100.946 87.0598 95.45 84.6335L94.6423 86.4631C99.6573 88.6769 103.468 92.4928 106.075 97.9802L107.881 97.1221ZM95.4531 84.6348C90.082 82.2422 83.5422 81.0682 75.87 81.0682V83.0682C83.3494 83.0682 89.5937 84.2142 94.6393 86.4618L95.4531 84.6348ZM75.87 81.0682H61.9496V83.0682H75.87V81.0682ZM60.9496 82.0682V160.477H62.9496V82.0682H60.9496ZM208.629 48.5455H209.629V47.5455H208.629V48.5455ZM208.629 194V195H209.629V194H208.629ZM169.141 194H168.141V195H169.141V194ZM169.141 48.5455V47.5455H168.141V48.5455H169.141ZM207.629 48.5455V194H209.629V48.5455H207.629ZM208.629 193H169.141V195H208.629V193ZM170.141 194V48.5455H168.141V194H170.141ZM169.141 49.5455H208.629V47.5455H169.141V49.5455ZM227.344 194H226.344V195H227.344V194ZM227.344 48.5455V47.5455H226.344V48.5455H227.344ZM318.466 54.9375L318 55.8224L318 55.8224L318.466 54.9375ZM337.358 72.9062L338.222 72.4027L338.222 72.4027L337.358 72.9062ZM337.145 127.026L336.291 126.506L336.288 126.51L337.145 127.026ZM317.756 144.639L317.313 143.743L317.311 143.744L317.756 144.639ZM251.207 150.818H250.207V151.818H251.207V150.818ZM251.207 120.136V119.136H250.207V120.136H251.207ZM292.614 117.722L293.056 118.619L293.061 118.616L292.614 117.722ZM300.213 110.69L299.353 110.18L299.347 110.19L300.213 110.69ZM300.213 89.3125L299.351 89.8189L299.356 89.827L299.36 89.8351L300.213 89.3125ZM292.614 82.4943L292.172 83.3913L292.179 83.3951L292.187 83.3988L292.614 82.4943ZM266.832 80.0795V79.0795H265.832V80.0795H266.832ZM266.832 194V195H267.832V194H266.832ZM228.344 194V48.5455H226.344V194H228.344ZM227.344 49.5455H290.128V47.5455H227.344V49.5455ZM290.128 49.5455C300.79 49.5455 310.071 51.6491 318 55.8224L318.932 54.0526C310.668 49.7031 301.056 47.5455 290.128 47.5455V49.5455ZM318 55.8224C325.935 59.9987 332.093 65.858 336.494 73.4098L338.222 72.4027C333.627 64.5189 327.19 58.399 318.932 54.0526L318 55.8224ZM336.494 73.4098C340.89 80.9523 343.105 89.793 343.105 99.9659H345.105C345.105 89.4949 342.822 80.2958 338.222 72.4027L336.494 73.4098ZM343.105 99.9659C343.105 110.23 340.821 119.064 336.291 126.506L337.999 127.546C342.75 119.741 345.105 110.535 345.105 99.9659H343.105ZM336.288 126.51C331.799 133.961 325.483 139.704 317.313 143.743L318.199 145.536C326.695 141.336 333.305 135.336 338.001 127.542L336.288 126.51ZM317.311 143.744C309.188 147.782 299.663 149.818 288.707 149.818V151.818C299.911 151.818 309.752 149.735 318.201 145.535L317.311 143.744ZM288.707 149.818H251.207V151.818H288.707V149.818ZM252.207 150.818V120.136H250.207V150.818H252.207ZM251.207 121.136H280.753V119.136H251.207V121.136ZM280.753 121.136C285.506 121.136 289.619 120.312 293.056 118.619L292.172 116.825C289.074 118.351 285.28 119.136 280.753 119.136V121.136ZM293.061 118.616C296.539 116.877 299.223 114.401 301.079 111.191L299.347 110.19C297.699 113.041 295.317 115.252 292.166 116.827L293.061 118.616ZM301.073 111.201C302.978 107.992 303.912 104.234 303.912 99.9659H301.912C301.912 103.936 301.046 107.328 299.353 110.18L301.073 111.201ZM303.912 99.9659C303.912 95.6537 302.98 91.913 301.066 88.7899L299.36 89.8351C301.045 92.5832 301.912 95.9448 301.912 99.9659H303.912ZM301.075 88.8061C299.215 85.639 296.525 83.2327 293.04 81.5898L292.187 83.3988C295.331 84.8809 297.707 87.02 299.351 89.8189L301.075 88.8061ZM293.056 81.5973C289.619 79.9037 285.506 79.0795 280.753 79.0795V81.0795C285.28 81.0795 289.074 81.8652 292.172 83.3913L293.056 81.5973ZM280.753 79.0795H266.832V81.0795H280.753V79.0795ZM265.832 80.0795V194H267.832V80.0795H265.832ZM266.832 193H227.344V195H266.832V193ZM358.594 194H357.594V195H358.594V194ZM358.594 48.5455V47.5455H357.594V48.5455H358.594ZM398.082 48.5455H399.082V47.5455H398.082V48.5455ZM398.082 105.364H397.082V106.364H398.082V105.364ZM450.355 105.364V106.364H451.355V105.364H450.355ZM450.355 48.5455V47.5455H449.355V48.5455H450.355ZM489.844 48.5455H490.844V47.5455H489.844V48.5455ZM489.844 194V195H490.844V194H489.844ZM450.355 194H449.355V195H450.355V194ZM450.355 137.182H451.355V136.182H450.355V137.182ZM398.082 137.182V136.182H397.082V137.182H398.082ZM398.082 194V195H399.082V194H398.082ZM359.594 194V48.5455H357.594V194H359.594ZM358.594 49.5455H398.082V47.5455H358.594V49.5455ZM397.082 48.5455V105.364H399.082V48.5455H397.082ZM398.082 106.364H450.355V104.364H398.082V106.364ZM451.355 105.364V48.5455H449.355V105.364H451.355ZM450.355 49.5455H489.844V47.5455H450.355V49.5455ZM488.844 48.5455V194H490.844V48.5455H488.844ZM489.844 193H450.355V195H489.844V193ZM451.355 194V137.182H449.355V194H451.355ZM450.355 136.182H398.082V138.182H450.355V136.182ZM397.082 137.182V194H399.082V137.182H397.082ZM398.082 193H358.594V195H398.082V193ZM548.082 48.5455H549.082V47.5455H548.082V48.5455ZM548.082 194V195H549.082V194H548.082ZM508.594 194H507.594V195H508.594V194ZM508.594 48.5455V47.5455H507.594V48.5455H508.594ZM547.082 48.5455V194H549.082V48.5455H547.082ZM548.082 193H508.594V195H548.082V193ZM509.594 194V48.5455H507.594V194H509.594ZM508.594 49.5455H548.082V47.5455H508.594V49.5455ZM661.257 96.5568L660.286 96.795L660.473 97.5568H661.257V96.5568ZM658.345 89.9517L657.519 90.5157L657.526 90.5252L658.345 89.9517ZM653.374 85.0511L652.796 85.8676L652.807 85.8755L652.819 85.8832L653.374 85.0511ZM646.555 81.9972L646.288 82.9607L646.298 82.9636L646.309 82.9662L646.555 81.9972ZM621.129 85.6903L620.569 84.8622L620.565 84.8648L621.129 85.6903ZM610.476 99.3977L609.551 99.0162L609.549 99.0225L610.476 99.3977ZM610.334 142.864L609.4 143.221L609.4 143.221L610.334 142.864ZM620.703 156.784L620.129 157.603L620.129 157.603L620.703 156.784ZM652.805 158.986L652.406 158.069L652.402 158.071L652.805 158.986ZM661.825 151.528L660.974 151.003L660.974 151.003L661.825 151.528ZM664.808 140.165L664.912 139.17L663.808 139.055V140.165H664.808ZM671.626 140.875V141.875L671.73 139.88L671.626 140.875ZM638.388 140.875H637.388V141.875H638.388V140.875ZM638.388 112.75V111.75H637.388V112.75H638.388ZM702.876 112.75H703.876V111.75H702.876V112.75ZM694.425 166.94L693.566 166.427L693.566 166.428L694.425 166.94ZM671.271 188.531L671.724 189.423L671.725 189.422L671.271 188.531ZM600.249 186.969L599.759 187.841L599.759 187.841L600.249 186.969ZM575.178 161.259L574.296 161.731L574.298 161.734L575.178 161.259ZM571.697 89.5966L570.768 89.2268L570.767 89.2309L571.697 89.5966ZM587.038 66.0881L587.738 66.8029L587.74 66.8003L587.038 66.0881ZM609.695 51.5284L610.051 52.4628L610.055 52.4611L609.695 51.5284ZM661.257 50.25L660.941 51.1987L660.948 51.2011L661.257 50.25ZM680.93 60.6193L680.31 61.4034L680.317 61.409L680.93 60.6193ZM694.78 76.4574L695.647 75.9598L695.647 75.9598L694.78 76.4574ZM701.172 96.5568V97.5568H702.281L702.167 96.4535L701.172 96.5568ZM662.228 96.3186C661.587 93.703 660.569 91.3848 659.164 89.3782L657.526 90.5252C658.773 92.3065 659.696 94.3917 660.286 96.795L662.228 96.3186ZM659.171 89.3877C657.772 87.3387 656.022 85.6148 653.928 84.2191L652.819 85.8832C654.703 87.139 656.267 88.6821 657.519 90.5157L659.171 89.3877ZM653.951 84.2347C651.898 82.7823 649.51 81.7172 646.802 81.0281L646.309 82.9662C648.81 83.6028 650.967 84.5738 652.796 85.8676L653.951 84.2347ZM646.823 81.0336C644.166 80.2957 641.258 79.9318 638.104 79.9318V81.9318C641.105 81.9318 643.831 82.2782 646.288 82.9607L646.823 81.0336ZM638.104 79.9318C631.31 79.9318 625.449 81.5597 620.569 84.8622L621.69 86.5185C626.185 83.4763 631.64 81.9318 638.104 81.9318V79.9318ZM620.565 84.8648C615.741 88.1626 612.077 92.8978 609.551 99.0162L611.4 99.7792C613.799 93.9658 617.237 89.5628 621.694 86.5159L620.565 84.8648ZM609.549 99.0225C607.073 105.138 605.854 112.47 605.854 120.989H607.854C607.854 112.651 609.049 105.589 611.403 99.7729L609.549 99.0225ZM605.854 120.989C605.854 129.597 607.025 137.017 609.4 143.221L611.268 142.506C609.003 136.589 607.854 129.425 607.854 120.989H605.854ZM609.4 143.221C611.78 149.438 615.349 154.252 620.129 157.603L621.277 155.965C616.872 152.877 613.528 148.411 611.268 142.506L609.4 143.221ZM620.129 157.603C624.924 160.964 630.841 162.614 637.82 162.614V160.614C631.162 160.614 625.668 159.044 621.277 155.965L620.129 157.603ZM637.82 162.614C643.922 162.614 649.065 161.726 653.209 159.901L652.402 158.071C648.591 159.749 643.744 160.614 637.82 160.614V162.614ZM653.205 159.903C657.385 158.083 660.564 155.474 662.676 152.054L660.974 151.003C659.109 154.023 656.275 156.385 652.406 158.069L653.205 159.903ZM662.676 152.054C664.776 148.654 665.808 144.678 665.808 140.165H663.808C663.808 144.364 662.852 147.964 660.974 151.003L662.676 152.054ZM664.705 141.159L671.523 141.87L671.73 139.88L664.912 139.17L664.705 141.159ZM671.626 139.875H638.388V141.875H671.626V139.875ZM639.388 140.875V112.75H637.388V140.875H639.388ZM638.388 113.75H702.876V111.75H638.388V113.75ZM701.876 112.75V132.92H703.876V112.75H701.876ZM701.876 132.92C701.876 146.035 699.091 157.189 693.566 166.427L695.283 167.454C701.028 157.847 703.876 146.321 703.876 132.92H701.876ZM693.566 166.428C688.076 175.639 680.5 182.706 670.817 187.64L671.725 189.422C681.74 184.319 689.599 176.991 695.284 167.452L693.566 166.428ZM670.819 187.639C661.178 192.53 650.092 194.989 637.536 194.989V196.989C650.358 196.989 661.762 194.476 671.724 189.423L670.819 187.639ZM637.536 194.989C623.523 194.989 611.268 192.014 600.738 186.097L599.759 187.841C610.631 193.95 623.233 196.989 637.536 196.989V194.989ZM600.738 186.097C590.208 180.179 581.984 171.749 576.057 160.783L574.298 161.734C580.398 173.022 588.888 181.732 599.759 187.841L600.738 186.097ZM576.059 160.786C570.186 149.833 567.229 136.768 567.229 121.557H565.229C565.229 137.027 568.237 150.431 574.296 161.731L576.059 160.786ZM567.229 121.557C567.229 109.63 569.036 99.1048 572.628 89.9622L570.767 89.2309C567.067 98.649 565.229 109.43 565.229 121.557H567.229ZM572.627 89.9663C576.273 80.8037 581.312 73.0885 587.738 66.8029L586.339 65.3732C579.696 71.8717 574.508 79.8289 570.768 89.2268L572.627 89.9663ZM587.74 66.8003C594.176 60.4581 601.61 55.6805 610.051 52.4628L609.338 50.594C600.639 53.9104 592.969 58.8393 586.336 65.3758L587.74 66.8003ZM610.055 52.4611C618.503 49.1941 627.565 47.5568 637.251 47.5568V45.5568C627.335 45.5568 618.027 47.2339 609.334 50.5957L610.055 52.4611ZM637.251 47.5568C645.773 47.5568 653.667 48.774 660.941 51.1987L661.573 49.3013C654.075 46.8018 645.965 45.5568 637.251 45.5568V47.5568ZM660.948 51.2011C668.278 53.582 674.728 56.9846 680.31 61.4034L681.551 59.8353C675.769 55.2578 669.104 51.7475 661.566 49.2989L660.948 51.2011ZM680.317 61.409C685.946 65.7823 690.475 70.9634 693.912 76.955L695.647 75.9598C692.077 69.7354 687.373 64.3578 681.544 59.8296L680.317 61.409ZM693.912 76.955C697.344 82.9368 699.433 89.5015 700.177 96.6602L702.167 96.4535C701.395 89.0288 699.223 82.1938 695.647 75.9598L693.912 76.955ZM701.172 95.5568H661.257V97.5568H701.172V95.5568ZM721.289 194H720.289V195H721.289V194ZM721.289 48.5455V47.5455H720.289V48.5455H721.289ZM760.778 48.5455H761.778V47.5455H760.778V48.5455ZM760.778 105.364H759.778V106.364H760.778V105.364ZM813.05 105.364V106.364H814.05V105.364H813.05ZM813.05 48.5455V47.5455H812.05V48.5455H813.05ZM852.539 48.5455H853.539V47.5455H852.539V48.5455ZM852.539 194V195H853.539V194H852.539ZM813.05 194H812.05V195H813.05V194ZM813.05 137.182H814.05V136.182H813.05V137.182ZM760.778 137.182V136.182H759.778V137.182H760.778ZM760.778 194V195H761.778V194H760.778ZM722.289 194V48.5455H720.289V194H722.289ZM721.289 49.5455H760.778V47.5455H721.289V49.5455ZM759.778 48.5455V105.364H761.778V48.5455H759.778ZM760.778 106.364H813.05V104.364H760.778V106.364ZM814.05 105.364V48.5455H812.05V105.364H814.05ZM813.05 49.5455H852.539V47.5455H813.05V49.5455ZM851.539 48.5455V194H853.539V48.5455H851.539ZM852.539 193H813.05V195H852.539V193ZM814.05 194V137.182H812.05V194H814.05ZM813.05 136.182H760.778V138.182H813.05V136.182ZM759.778 137.182V194H761.778V137.182H759.778ZM760.778 193H721.289V195H760.778V193Z" fill="url(#paint0_linear_642_255)" fill-opacity="0.5" mask="url(#path-2-outside-1_642_255)"/>
</g>
<defs>
<filter id="filter0_f_642_255" x="0.375" y="50.5566" width="854.078" height="173.432" filterUnits="userSpaceOnUse" color-interpolation-filters="sRGB">
<feFlood flood-opacity="0" result="BackgroundImageFix"/>
<feBlend mode="normal" in="SourceGraphic" in2="BackgroundImageFix" result="shape"/>
<feGaussianBlur stdDeviation="6" result="effect1_foregroundBlur_642_255"/>
</filter>
<filter id="filter1_b_642_255" x="13.4609" y="37.5566" width="848.078" height="167.432" filterUnits="userSpaceOnUse" color-interpolation-filters="sRGB">
<feFlood flood-opacity="0" result="BackgroundImageFix"/>
<feGaussianBlur in="BackgroundImageFix" stdDeviation="4"/>
<feComposite in2="SourceAlpha" operator="in" result="effect1_backgroundBlur_642_255"/>
<feBlend mode="normal" in="SourceGraphic" in2="effect1_backgroundBlur_642_255" result="shape"/>
</filter>
<linearGradient id="paint0_linear_642_255" x1="13" y1="105" x2="862" y2="105" gradientUnits="userSpaceOnUse">
<stop stop-color="white" stop-opacity="0.3"/>
<stop offset="0.237339" stop-color="white" stop-opacity="0.3"/>
<stop offset="0.365967" stop-color="white"/>
<stop offset="0.659183" stop-color="white"/>
<stop offset="0.804408" stop-color="white" stop-opacity="0.3"/>
<stop offset="1" stop-color="white" stop-opacity="0.3"/>
</linearGradient>
</defs>
</svg>
